<?xml version="1.0" encoding="UTF-8"?>
<svg id="svg2" viewBox="0 0 99.835 161.2" version="1.1" xmlns="http://www.w3.org/2000/svg">
 <g id="layer1" transform="translate(-131.14 -711.2)">
  <path id="path4813" d="m181.06 838.1v-52.387" fill="none" stroke="#000" stroke-width=".75"/>
  <text id="text3783" transform="rotate(90)" x="1133.8267" y="-337.10715" fill="#000000" font-family="Nanum Pen Script" font-size="40px" letter-spacing="0px" word-spacing="0px" style="line-height:125%" xml:space="preserve"><tspan id="tspan3785" x="1133.8267" y="-337.10715"/></text>
  <rect id="rect3780" transform="rotate(90)" x="711.7" y="-230.48" width="75.2" height="98.835" ry="2.3" fill="#e2faff" stroke="#747474"/>
  <rect id="rect3794" transform="rotate(90)" x="787.51" y="-212.45" width="11.305" height="7.7737" ry="0" stroke="#747474"/>
  <rect id="rect3811" transform="rotate(90)" x="787.51" y="-157.45" width="11.305" height="7.7737" ry="0" stroke="#747474"/>
  <flowRoot id="flowRoot3912" transform="matrix(0 1 -1 0 973.78 611.66)" fill="#000000" font-family="Helvetica-otf" font-size="14px" letter-spacing="0px" word-spacing="0px" style="line-height:125%" xml:space="preserve"><flowRegion id="flowRegion3914"><rect id="rect3916" x="-247.81" y="-163.3" width="233.33" height="61.313"/></flowRegion><flowPara id="flowPara3918"/></flowRoot>
  <text id="text9931" x="166.5676" y="725.23199" fill="#000000" font-family="Helvetica-otf" font-size="14px" letter-spacing="0px" word-spacing="0px" style="line-height:125%" xml:space="preserve"><tspan id="tspan9933" x="166.5676" y="725.23199"><tspan id="tspan9935" x="166.5676" y="725.23199">VNA</tspan></tspan></text>
  <text id="text9943" x="204.72629" y="783.45306" fill="#000000" font-family="Helvetica-otf" font-size="14px" letter-spacing="0px" word-spacing="0px" style="line-height:125%" xml:space="preserve"><tspan id="tspan9945" x="204.72629" y="783.45306"><tspan id="tspan9947" x="204.72629" y="783.45306">2</tspan></tspan></text>
  <rect id="rect4026" transform="rotate(90)" x="837.04" y="-191.79" width="34.855" height="21.458" ry="4.4076" fill="#e2faff" stroke="#747474"/>
  <rect id="rect4028" transform="scale(-1)" x="-204.09" y="-858.36" width="11.305" height="7.7737" ry="0" stroke="#747474"/>
  <rect id="rect4030" transform="scale(-1)" x="-169.33" y="-858.36" width="11.305" height="7.7737" ry="0" stroke="#747474"/>
  <path id="path1334" d="m181.06 784.38 0.67809-1.1742h-0.48372v-6.0017l1.2346 1.1686c0.0797 0.0994 0.13563 0.22957 0.13873 0.36342 0 0.5415 1.4e-4 0.86306 3.8e-4 0.98143-0.22859 0.0802-0.39359 0.29575-0.39359 0.55196 0 0.32412 0.26302 0.58716 0.58726 0.58716 0.32438 0 0.5873-0.26302 0.5873-0.58716 0-0.25621-0.1649-0.47173-0.3933-0.55196l1.6e-4 -0.96993c0-0.26287-0.14422-0.53832-0.3133-0.71364 5e-3 5e-3 0.0104 0.01-9e-5 -2.8e-4 -4e-3 -4e-3 -1.3098-1.2398-1.3098-1.2398-0.0796-0.0992-0.13516-0.2293-0.13836-0.36306v-0.67894c0.44852-0.09 0.78644-0.48606 0.78644-0.96117 0-0.54168-0.43908-0.98077-0.9806-0.98077-0.54168 0-0.98079 0.43909-0.98079 0.98077 0 0.4752 0.3382 0.87127 0.7871 0.96127v0.66704c0 2e-3 -1e-4 3e-3 0 5e-3v1.4754c-3e-3 0.1335-0.059 0.26339-0.13874 0.36254 0 0-1.3055 1.2358-1.3097 1.2397-0.0105 0.01-5e-3 5e-3 -9e-5 1e-4 -0.16905 0.17532-0.31318 0.45089-0.31318 0.71381l2.1e-4 0.93472h-0.3937v1.1745h1.1744v-1.1745h-0.39318s4.4e-4 -0.24619 4.4e-4 -0.94617c3e-3 -0.13388 0.0589-0.26415 0.13865-0.36355l1.2349-1.1688v4.534h-0.4845l0.67801 1.1742z"/>
  <path id="path4268" transform="translate(131.14 711.2)" d="m22.581 86.259c0 36.346-31.011 56.904 5.4194 57.205" fill="none" stroke="#000" stroke-width="4"/>
  <path id="path4268-7" d="m208.55 797.46c0 36.346 30.71 56.904-5.7205 57.205" fill="none" stroke="#000" stroke-width="4"/>
  <text id="text9949" x="173.18626" y="857.60028" fill="#000000" font-family="Helvetica-otf" font-size="8px" letter-spacing="0px" word-spacing="0px" style="line-height:125%" xml:space="preserve"><tspan id="tspan9951" x="173.18626" y="857.60028"><tspan id="tspan9953" x="173.18626" y="857.60028">CAL</tspan></tspan></text>
  <path id="path4811" d="m181.06 839.14 0.41734 0.72268h-0.29771v3.6938l0.75986-0.71923c0.0491-0.0612 0.0835-0.14129 0.0854-0.22367 0-0.33327 8e-5 -0.53118 2.3e-4 -0.60403-0.14069-0.0494-0.24224-0.18203-0.24224-0.33971 0-0.19949 0.16188-0.36138 0.36144-0.36138 0.19964 0 0.36146 0.16188 0.36146 0.36138 0 0.15768-0.10149 0.29033-0.24206 0.33971l1e-4 0.59695c0 0.16179-0.0888 0.33132-0.19283 0.43922 3e-3 -3e-3 6e-3 -6e-3 -5e-5 1.7e-4 -2e-3 2e-3 -0.80612 0.76308-0.80612 0.76308-0.049 0.061-0.0832 0.14112-0.0852 0.22345v0.41786c0.27605 0.0554 0.48402 0.29915 0.48402 0.59157 0 0.33338-0.27023 0.60362-0.60352 0.60362-0.33338 0-0.60364-0.27024-0.60364-0.60362 0-0.29247 0.20815-0.53624 0.48443-0.59163v-0.41054c0-1e-3 -6e-5 -2e-3 0-3e-3v-0.90804c-2e-3 -0.0822-0.0363-0.1621-0.0854-0.22313 0 0-0.80348-0.76062-0.80609-0.76297-6e-3 -6e-3 -3e-3 -3e-3 -5e-5 -6e-5 -0.10405-0.1079-0.19275-0.2775-0.19275-0.43932l1.3e-4 -0.57529h-0.24231v-0.72286h0.72279v0.72286h-0.24198s2.7e-4 0.15152 2.7e-4 0.58233c2e-3 0.0824 0.0362 0.16258 0.0853 0.22376l0.76001 0.71938v-2.7905h-0.29819l0.41729-0.72267z"/>
  <text id="text9937" x="150.39963" y="783.41547" fill="#000000" font-family="Helvetica-otf" font-size="14px" letter-spacing="0px" word-spacing="0px" style="line-height:125%" xml:space="preserve"><tspan id="tspan9939" x="150.39963" y="783.41547"><tspan id="tspan9941" x="150.39963" y="783.41547">1</tspan></tspan></text>
 </g>
</svg>
