<?xml version="1.0" encoding="UTF-8" standalone="no"?>
<svg
   xmlns:dc="http://purl.org/dc/elements/1.1/"
   xmlns:cc="http://creativecommons.org/ns#"
   xmlns:rdf="http://www.w3.org/1999/02/22-rdf-syntax-ns#"
   xmlns:svg="http://www.w3.org/2000/svg"
   xmlns="http://www.w3.org/2000/svg"
   version="1.1"
   id="svg2"
   height="161.19722"
   width="99.834534">
  <defs
     id="defs4" />
  <metadata
     id="metadata7">
    <rdf:RDF>
      <cc:Work
         rdf:about="">
        <dc:format>image/svg+xml</dc:format>
        <dc:type
           rdf:resource="http://purl.org/dc/dcmitype/StillImage" />
        <dc:title></dc:title>
      </cc:Work>
    </rdf:RDF>
  </metadata>
  <g
     transform="translate(-131.14203,-711.19946)"
     id="layer1">
    <path
       id="path4813"
       d="m 181.0593,838.10334 0,-52.38736"
       style="fill:none;stroke:#000000;stroke-width:0.75;stroke-linecap:butt;stroke-linejoin:miter;stroke-miterlimit:4;stroke-opacity:1;stroke-dasharray:none" />
    <text
       transform="matrix(0,1,-1,0,0,0)"
       id="text3783"
       y="-337.10715"
       x="1133.8267"
       style="font-size:40px;font-style:normal;font-variant:normal;font-weight:normal;font-stretch:normal;line-height:125%;letter-spacing:0px;word-spacing:0px;fill:#000000;fill-opacity:1;stroke:none;font-family:Nanum Pen Script;-inkscape-font-specification:Nanum Pen Script"
       xml:space="preserve"><tspan
         y="-337.10715"
         x="1133.8267"
         id="tspan3785" /></text>
    <rect
       transform="matrix(0,1,-1,0,0,0)"
       style="fill:#e2faff;fill-opacity:1;stroke:#747474;stroke-opacity:1"
       id="rect3780"
       width="75.199593"
       height="98.834534"
       x="711.69946"
       y="-230.47656"
       ry="2.3000393" />
    <rect
       transform="matrix(0,1,-1,0,0,0)"
       style="fill:#000000;fill-opacity:1;stroke:#747474;stroke-width:1;stroke-miterlimit:4;stroke-opacity:1;stroke-dasharray:none"
       id="rect3794"
       width="11.304932"
       height="7.7736816"
       x="787.5108"
       y="-212.44614"
       ry="0" />
    <rect
       transform="matrix(0,1,-1,0,0,0)"
       ry="0"
       y="-157.44614"
       x="787.5108"
       height="7.7736816"
       width="11.304932"
       id="rect3811"
       style="fill:#000000;fill-opacity:1;stroke:#747474;stroke-width:1;stroke-miterlimit:4;stroke-opacity:1;stroke-dasharray:none" />
    <flowRoot
       transform="matrix(0,1,-1,0,973.77533,611.65673)"
       style="font-size:14px;font-style:normal;font-variant:normal;font-weight:normal;font-stretch:normal;line-height:125%;letter-spacing:0px;word-spacing:0px;fill:#000000;fill-opacity:1;stroke:none;font-family:Helvetica-otf;-inkscape-font-specification:Helvetica-otf"
       id="flowRoot3912"
       xml:space="preserve"><flowRegion
         id="flowRegion3914"><rect
           style="font-size:14px;font-style:normal;font-variant:normal;font-weight:normal;font-stretch:normal;font-family:Helvetica-otf;-inkscape-font-specification:Helvetica-otf"
           y="-163.30176"
           x="-247.80797"
           height="61.313309"
           width="233.33121"
           id="rect3916" /></flowRegion><flowPara
         id="flowPara3918" /></flowRoot>    <text
       id="text9931"
       y="725.23199"
       x="166.5676"
       style="font-style:normal;font-variant:normal;font-weight:normal;font-stretch:normal;font-size:14px;line-height:125%;font-family:Helvetica-otf;-inkscape-font-specification:Helvetica-otf;letter-spacing:0px;word-spacing:0px;fill:#000000;fill-opacity:1;stroke:none"
       xml:space="preserve"><tspan
         id="tspan9933"
         y="725.23199"
         x="166.5676"><tspan
           id="tspan9935"
           y="725.23199"
           x="166.5676">VNA</tspan></tspan></text>
    <text
       id="text9943"
       y="783.45306"
       x="204.72629"
       style="font-style:normal;font-variant:normal;font-weight:normal;font-stretch:normal;font-size:14px;line-height:125%;font-family:Helvetica-otf;-inkscape-font-specification:Helvetica-otf;letter-spacing:0px;word-spacing:0px;fill:#000000;fill-opacity:1;stroke:none"
       xml:space="preserve"><tspan
         id="tspan9945"
         y="783.45306"
         x="204.72629"><tspan
           id="tspan9947"
           y="783.45306"
           x="204.72629">2</tspan></tspan></text>
    <rect
       transform="matrix(0,1,-1,0,0,0)"
       ry="4.4075961"
       y="-191.78821"
       x="837.04138"
       height="21.4578"
       width="34.855297"
       id="rect4026"
       style="fill:#e2faff;fill-opacity:1;stroke:#747474;stroke-opacity:1" />
    <rect
       transform="scale(-1,-1)"
       ry="0"
       y="-858.35583"
       x="-204.09314"
       height="7.7736816"
       width="11.304932"
       id="rect4028"
       style="fill:#000000;fill-opacity:1;stroke:#747474;stroke-width:1;stroke-miterlimit:4;stroke-opacity:1;stroke-dasharray:none" />
    <rect
       style="fill:#000000;fill-opacity:1;stroke:#747474;stroke-width:1;stroke-miterlimit:4;stroke-opacity:1;stroke-dasharray:none"
       id="rect4030"
       width="11.304932"
       height="7.7736816"
       x="-169.33038"
       y="-858.35583"
       ry="0"
       transform="scale(-1,-1)" />
    <path
       d="m 181.05909,784.37733 0.67809,-1.17421 -0.48372,0 0,-6.00168 1.23463,1.1686 c 0.0797,0.0994 0.13563,0.22957 0.13873,0.36342 0,0.5415 1.4e-4,0.86306 3.8e-4,0.98143 -0.22859,0.0802 -0.39359,0.29575 -0.39359,0.55196 0,0.32412 0.26302,0.58716 0.58726,0.58716 0.32438,0 0.5873,-0.26302 0.5873,-0.58716 0,-0.25621 -0.1649,-0.47173 -0.3933,-0.55196 l 1.6e-4,-0.96993 c 0,-0.26287 -0.14422,-0.53832 -0.3133,-0.71364 0.005,0.005 0.0104,0.01 -9e-5,-2.8e-4 -0.004,-0.004 -1.30978,-1.23984 -1.30978,-1.23984 -0.0796,-0.0992 -0.13516,-0.2293 -0.13836,-0.36306 l 0,-0.67894 c 0.44852,-0.09 0.78644,-0.48606 0.78644,-0.96117 0,-0.54168 -0.43908,-0.98077 -0.9806,-0.98077 -0.54168,0 -0.98079,0.43909 -0.98079,0.98077 0,0.4752 0.3382,0.87127 0.7871,0.96127 l 0,0.66704 c 0,0.002 -10e-5,0.003 0,0.005 l 0,1.47538 c -0.003,0.1335 -0.059,0.26339 -0.13874,0.36254 0,0 -1.3055,1.23585 -1.30973,1.23967 -0.0105,0.01 -0.005,0.005 -9e-5,10e-5 -0.16905,0.17532 -0.31318,0.45089 -0.31318,0.71381 l 2.1e-4,0.93472 -0.3937,0 0,1.17451 1.17439,0 0,-1.17451 -0.39318,0 c 0,0 4.4e-4,-0.24619 4.4e-4,-0.94617 0.003,-0.13388 0.0589,-0.26415 0.13865,-0.36355 l 1.23486,-1.16885 0,4.53398 -0.4845,0 0.67801,1.1742 z"
       id="path1334" />
    <path
       transform="translate(131.14203,711.19946)"
       id="path4268"
       d="m 22.580759,86.258515 c 0,36.345605 -31.0109088,56.903515 5.419382,57.204595"
       style="fill:none;stroke:#000000;stroke-width:4;stroke-linecap:butt;stroke-linejoin:miter;stroke-miterlimit:4;stroke-opacity:1;stroke-dasharray:none" />
    <path
       id="path4268-7"
       d="m 208.54956,797.45756 c 0,36.3456 30.70983,56.90393 -5.72046,57.20501"
       style="fill:none;stroke:#000000;stroke-width:4;stroke-linecap:butt;stroke-linejoin:miter;stroke-miterlimit:4;stroke-opacity:1;stroke-dasharray:none" />
    <text
       id="text9949"
       y="857.60028"
       x="173.18626"
       style="font-style:normal;font-variant:normal;font-weight:normal;font-stretch:normal;font-size:8px;line-height:125%;font-family:Helvetica-otf;-inkscape-font-specification:Helvetica-otf;letter-spacing:0px;word-spacing:0px;fill:#000000;fill-opacity:1;stroke:none"
       xml:space="preserve"><tspan
         id="tspan9951"
         y="857.60028"
         x="173.18626"><tspan
           id="tspan9953"
           y="857.60028"
           x="173.18626">CAL</tspan></tspan></text>
    <path
       id="path4811"
       d="m 181.0592,839.14092 0.41734,0.72268 -0.29771,0 0,3.69381 0.75986,-0.71923 c 0.0491,-0.0612 0.0835,-0.14129 0.0854,-0.22367 0,-0.33327 8e-5,-0.53118 2.3e-4,-0.60403 -0.14069,-0.0494 -0.24224,-0.18203 -0.24224,-0.33971 0,-0.19949 0.16188,-0.36138 0.36144,-0.36138 0.19964,0 0.36146,0.16188 0.36146,0.36138 0,0.15768 -0.10149,0.29033 -0.24206,0.33971 l 1e-4,0.59695 c 0,0.16179 -0.0888,0.33132 -0.19283,0.43922 0.003,-0.003 0.006,-0.006 -5e-5,1.7e-4 -0.002,0.002 -0.80612,0.76308 -0.80612,0.76308 -0.049,0.061 -0.0832,0.14112 -0.0852,0.22345 l 0,0.41786 c 0.27605,0.0554 0.48402,0.29915 0.48402,0.59157 0,0.33338 -0.27023,0.60362 -0.60352,0.60362 -0.33338,0 -0.60364,-0.27024 -0.60364,-0.60362 0,-0.29247 0.20815,-0.53624 0.48443,-0.59163 l 0,-0.41054 c 0,-10e-4 -6e-5,-0.002 0,-0.003 l 0,-0.90804 c -0.002,-0.0822 -0.0363,-0.1621 -0.0854,-0.22313 0,0 -0.80348,-0.76062 -0.80609,-0.76297 -0.006,-0.006 -0.003,-0.003 -5e-5,-6e-5 -0.10405,-0.1079 -0.19275,-0.2775 -0.19275,-0.43932 l 1.3e-4,-0.57529 -0.24231,0 0,-0.72286 0.72279,0 0,0.72286 -0.24198,0 c 0,0 2.7e-4,0.15152 2.7e-4,0.58233 0.002,0.0824 0.0362,0.16258 0.0853,0.22376 l 0.76001,0.71938 0,-2.7905 -0.29819,0 0.41729,-0.72267 z" />
    <text
       id="text9937"
       y="783.41547"
       x="150.39963"
       style="font-style:normal;font-variant:normal;font-weight:normal;font-stretch:normal;font-size:14px;line-height:125%;font-family:Helvetica-otf;-inkscape-font-specification:Helvetica-otf;letter-spacing:0px;word-spacing:0px;fill:#000000;fill-opacity:1;stroke:none"
       xml:space="preserve"><tspan
         id="tspan9939"
         y="783.41547"
         x="150.39963"><tspan
           id="tspan9941"
           y="783.41547"
           x="150.39963">1</tspan></tspan></text>
  </g>
</svg>
