<?xml version="1.0" encoding="UTF-8" standalone="no"?>
<!-- Created with Inkscape (http://www.inkscape.org/) -->

<svg
   xmlns:dc="http://purl.org/dc/elements/1.1/"
   xmlns:cc="http://creativecommons.org/ns#"
   xmlns:rdf="http://www.w3.org/1999/02/22-rdf-syntax-ns#"
   xmlns:svg="http://www.w3.org/2000/svg"
   xmlns="http://www.w3.org/2000/svg"
   xmlns:xlink="http://www.w3.org/1999/xlink"
   xmlns:sodipodi="http://sodipodi.sourceforge.net/DTD/sodipodi-0.dtd"
   xmlns:inkscape="http://www.inkscape.org/namespaces/inkscape"
   width="64px"
   height="64px"
   id="svg3221"
   version="1.1"
   inkscape:version="0.48.2 r9819"
   sodipodi:docname="RSLogo 64x64.png"
   inkscape:export-filename="/Users/nicholaslalic/Documents/Google Drive/RSA/Clip Art/RSLogo2 64x64.png"
   inkscape:export-xdpi="90"
   inkscape:export-ydpi="90">
  <defs
     id="defs3223">
    <linearGradient
       inkscape:collect="always"
       id="linearGradient4064">
      <stop
         style="stop-color:#fdfcd9;stop-opacity:0.99514562"
         offset="0"
         id="stop4066" />
      <stop
         style="stop-color:#fdfcd9;stop-opacity:0;"
         offset="1"
         id="stop4068" />
    </linearGradient>
    <linearGradient
       inkscape:collect="always"
       xlink:href="#linearGradient4064"
       id="linearGradient4070"
       x1="30.487219"
       y1="9.7581606"
       x2="30.487219"
       y2="-7.6945138"
       gradientUnits="userSpaceOnUse"
       gradientTransform="matrix(0.99368334,0,0,0.99368334,4.0117691,8.4105646)" />
    <filter
       id="filter4272"
       x="-0.25"
       y="-0.25"
       width="1.5"
       height="1.5"
       inkscape:menu-tooltip="Creates colorizable blotches which smoothly flow over the edges of the lines at their crossings"
       inkscape:menu="Protrusions"
       inkscape:label="Chewing gum"
       color-interpolation-filters="sRGB">
      <feFlood
         id="feFlood4274"
         result="result4"
         flood-color="rgb(253,112,174)"
         flood-opacity="1" />
      <feGaussianBlur
         id="feGaussianBlur4276"
         result="result1"
         in="SourceAlpha"
         stdDeviation="15" />
      <feComposite
         in2="result4"
         id="feComposite4278"
         in="result1"
         result="result3"
         k4="-2"
         k2="4"
         operator="arithmetic" />
      <feColorMatrix
         id="feColorMatrix4280"
         result="result2"
         values="1 0 0 0 0 0 1 0 0 0 0 0 1 0 0 0 0 0 10 -3" />
      <feComposite
         in2="result2"
         id="feComposite4282"
         operator="in"
         in="result4"
         result="fbSourceGraphic" />
      <feBlend
         in2="SourceGraphic"
         id="feBlend4284"
         in="fbSourceGraphic"
         mode="normal"
         result="result5" />
    </filter>
    <linearGradient
       inkscape:collect="always"
       xlink:href="#linearGradient4064-9"
       id="linearGradient4070-2"
       x1="30.487219"
       y1="9.7581606"
       x2="30.487219"
       y2="-7.6945138"
       gradientUnits="userSpaceOnUse"
       gradientTransform="matrix(0.99368334,0,0,0.99368334,4.0117691,8.4105646)" />
    <linearGradient
       inkscape:collect="always"
       id="linearGradient4064-9">
      <stop
         style="stop-color:#fdfcd9;stop-opacity:0.99514562"
         offset="0"
         id="stop4066-2" />
      <stop
         style="stop-color:#fdfcd9;stop-opacity:0;"
         offset="1"
         id="stop4068-6" />
    </linearGradient>
    <linearGradient
       inkscape:collect="always"
       xlink:href="#linearGradient4064"
       id="linearGradient4375"
       gradientUnits="userSpaceOnUse"
       gradientTransform="matrix(0.99368334,0,0,0.99368334,4.0117691,8.4105646)"
       x1="30.487219"
       y1="9.7581606"
       x2="30.487219"
       y2="-7.6945138" />
  </defs>
  <sodipodi:namedview
     id="base"
     pagecolor="#ffffff"
     bordercolor="#666666"
     borderopacity="1.0"
     inkscape:pageopacity="0.0"
     inkscape:pageshadow="2"
     inkscape:zoom="9.96875"
     inkscape:cx="32"
     inkscape:cy="32"
     inkscape:current-layer="layer1"
     showgrid="true"
     inkscape:document-units="px"
     inkscape:grid-bbox="true"
     inkscape:showpageshadow="true"
     showborder="true"
     inkscape:window-width="1383"
     inkscape:window-height="856"
     inkscape:window-x="128"
     inkscape:window-y="0"
     inkscape:window-maximized="0" />
  <metadata
     id="metadata3226">
    <rdf:RDF>
      <cc:Work
         rdf:about="">
        <dc:format>image/svg+xml</dc:format>
        <dc:type
           rdf:resource="http://purl.org/dc/dcmitype/StillImage" />
        <dc:title></dc:title>
      </cc:Work>
    </rdf:RDF>
  </metadata>
  <g
     id="layer1"
     inkscape:label="Layer 1"
     inkscape:groupmode="layer">
    <g
       id="g4090"
       transform="translate(0.2494542,-0.1480723)">
      <path
         style="fill:#175777;fill-opacity:1"
         inkscape:connector-curvature="0"
         id="path3135-4"
         d="M 32.121713,2.5457601 2.1929033,32.474568 32.123122,62.397747 62.053335,32.474568 32.121713,2.5457601 z m 24.07311,29.8063439 c -0.453254,0.451846 -6.186487,6.185083 -11.945059,11.938024 0.541934,-0.695365 0.817826,-1.545566 0.817826,-2.483041 0,-3.092541 -3.057349,-3.724562 -4.051129,-3.972303 -3.419107,-0.879764 -4.069427,-1.01208 -4.069427,-2.062165 0,-1.145801 1.107797,-1.54838 2.06357,-1.54838 1.432957,0 2.598466,0.420878 2.694185,2.062163 h 2.90251 c 0,-3.150253 -2.616765,-4.393181 -5.462972,-4.393181 -1.3119,0 -2.657584,0.38991 -3.642919,1.165508 1.159879,-1.372429 2.14662,-2.889843 2.920813,-4.525497 1.44844,-2.999637 3.838578,-5.538983 6.74531,-7.208419 5.430597,5.432003 10.597968,10.59656 11.027292,11.027291 z M 21.522338,45.759682 c 0.0013,-0.0029 0.0013,-0.0056 0.0013,-0.0085 0,-0.04926 -0.163285,-0.242109 -0.35472,-0.450437 1.707442,-3.008084 4.338284,-5.455934 7.481498,-6.917043 2.249376,-1.088091 4.263681,-2.57876 5.97253,-4.360808 -0.353312,0.557418 -0.577124,1.214777 -0.577124,1.998821 0,2.559053 2.043864,3.343097 4.068021,3.877993 2.005857,0.534895 4.049722,0.782637 4.049722,2.253599 0,1.393543 -1.604687,1.701813 -2.654772,1.701813 -1.604685,0 -3.019344,-0.706626 -3.019344,-2.521047 H 33.58553 c -0.03659,3.362803 2.789902,4.849249 5.807839,4.849249 1.829906,0 3.231896,-0.456068 4.187667,-1.220405 C 37.971728,50.568095 32.536907,56.004322 32.152628,56.385788 31.322131,55.555291 21.522283,45.759666 21.522283,45.759666 z M 32.217432,8.3775281 c 0.401171,0.401171 4.939337,4.9379289 9.961724,9.9603159 -3.220634,2.079053 -5.788132,4.96749 -7.464606,8.442902 -0.689735,1.456886 -1.596241,2.789902 -2.660402,3.980748 -0.146391,-0.422287 -0.26041,-0.838941 -0.282931,-1.178177 -0.09572,-1.376652 -0.516597,-2.808202 -1.98756,-3.191075 v -0.03801 c 1.510377,-0.612313 2.159289,-1.814421 2.159289,-3.420514 0,-2.063571 -1.548382,-3.763976 -3.994825,-3.763976 H 21.423804 C 26.771352,13.823607 31.795146,8.8012211 32.217432,8.3775281 z M 28.941901,23.394013 c 0,1.375245 -0.726331,1.949554 -2.062162,1.949554 h -3.285384 v -3.841394 h 3.285384 c 1.335831,0 2.062162,0.572902 2.062162,1.89184 z M 18.137013,42.368726 c -0.101354,-0.09572 -0.175952,-0.173137 -0.175952,-0.173137 0.04646,-0.08306 -0.951551,-1.078237 -0.951551,-1.078237 -0.04223,0.07038 -7.0366927,-6.907191 -8.8328157,-8.701905 0.406802,-0.406801 6.4750517,-6.47505 12.4166147,-12.415204 v 12.812153 h 2.999638 v -5.330655 h 2.998229 c 1.510376,0 2.063571,0.629205 2.274714,2.063569 0.135131,0.950144 0.46733,2.478819 0.79249,3.424739 -0.865687,0.654543 -1.787678,1.234483 -2.770196,1.710259 -3.61899,1.682104 -6.621443,4.332654 -8.751171,7.688418 z" />
      <path
         style="fill:#009bea"
         inkscape:connector-curvature="0"
         id="path3135"
         d="M 31.376567,1.8983976 1.4477566,31.827205 31.377976,61.750384 61.308189,31.827205 31.376567,1.8983976 z m 24.07311,29.8063434 c -0.453254,0.451846 -6.186487,6.185083 -11.945059,11.938024 0.541934,-0.695365 0.817826,-1.545566 0.817826,-2.483041 0,-3.092541 -3.057349,-3.724562 -4.051129,-3.972303 -3.419107,-0.879764 -4.069427,-1.01208 -4.069427,-2.062165 0,-1.145801 1.107797,-1.54838 2.06357,-1.54838 1.432957,0 2.598466,0.420878 2.694185,2.062163 h 2.90251 c 0,-3.150253 -2.616765,-4.393181 -5.462972,-4.393181 -1.3119,0 -2.657584,0.38991 -3.642919,1.165508 1.159879,-1.372429 2.14662,-2.889843 2.920813,-4.525497 1.44844,-2.999637 3.838578,-5.538983 6.74531,-7.208419 5.430597,5.432003 10.597968,10.59656 11.027292,11.027291 z M 20.777192,45.112319 c 0.0013,-0.0029 0.0013,-0.0056 0.0013,-0.0085 0,-0.04926 -0.163285,-0.242109 -0.35472,-0.450437 1.707442,-3.008084 4.338284,-5.455934 7.481498,-6.917043 2.249376,-1.088091 4.263681,-2.57876 5.97253,-4.360808 -0.353312,0.557418 -0.577124,1.214777 -0.577124,1.998821 0,2.559053 2.043864,3.343097 4.068021,3.877993 2.005857,0.534895 4.049722,0.782637 4.049722,2.253599 0,1.393543 -1.604687,1.701813 -2.654772,1.701813 -1.604685,0 -3.019344,-0.706626 -3.019344,-2.521047 h -2.903919 c -0.03659,3.362803 2.789902,4.849249 5.807839,4.849249 1.829906,0 3.231896,-0.456068 4.187667,-1.220405 C 37.226582,49.920732 31.791761,55.356959 31.407482,55.738425 30.576985,54.907928 20.777137,45.112303 20.777137,45.112303 z M 31.472286,7.7301655 c 0.401171,0.4011712 4.939337,4.9379285 9.961724,9.9603155 -3.220634,2.079053 -5.788132,4.96749 -7.464606,8.442902 -0.689735,1.456886 -1.596241,2.789902 -2.660402,3.980748 -0.146391,-0.422287 -0.26041,-0.838941 -0.282931,-1.178177 -0.09572,-1.376652 -0.516597,-2.808202 -1.98756,-3.191075 v -0.03801 c 1.510377,-0.612313 2.159289,-1.814421 2.159289,-3.420514 0,-2.063571 -1.548382,-3.763976 -3.994825,-3.763976 H 20.678658 C 26.026206,13.176244 31.05,8.1538586 31.472286,7.7301655 z M 28.196755,22.74665 c 0,1.375245 -0.726331,1.949554 -2.062162,1.949554 H 22.849209 V 20.85481 h 3.285384 c 1.335831,0 2.062162,0.572902 2.062162,1.89184 z M 17.391867,41.721363 c -0.101354,-0.09572 -0.175952,-0.173137 -0.175952,-0.173137 0.04646,-0.08306 -0.951551,-1.078237 -0.951551,-1.078237 -0.04223,0.07038 -7.0366935,-6.907191 -8.8328156,-8.701905 C 7.8383498,31.361283 13.9066,25.293034 19.848163,19.35288 v 12.812153 h 2.999638 v -5.330655 h 2.998229 c 1.510376,0 2.063571,0.629205 2.274714,2.063569 0.135131,0.950144 0.46733,2.478819 0.79249,3.424739 -0.865687,0.654543 -1.787678,1.234483 -2.770196,1.710259 -3.61899,1.682104 -6.621443,4.332654 -8.751171,7.688418 z" />
    </g>
  </g>
</svg>
